<svg xmlns="http://www.w3.org/2000/svg" width="18.021" height="19.61" viewBox="0 0 18.021 19.61"><defs><style>.a{fill:none;stroke:#3a474e;stroke-linecap:round;stroke-linejoin:round;stroke-width:2px;}</style></defs><g transform="translate(1.13 1.029)"><line class="a" x1="7.881" y1="4.544" transform="translate(3.94 1.933)"/><path class="a" d="M18.761,14.259v-7a1.751,1.751,0,0,0-.876-1.515l-6.129-3.5a1.751,1.751,0,0,0-1.751,0l-6.129,3.5A1.751,1.751,0,0,0,3,7.254v7a1.751,1.751,0,0,0,.876,1.515L10,19.276a1.751,1.751,0,0,0,1.751,0l6.129-3.5A1.751,1.751,0,0,0,18.761,14.259Z" transform="translate(-3 -2.002)"/><path class="a" d="M3.27,6.96l7.644,4.422L18.558,6.96" transform="translate(-3.034 -2.619)"/><line class="a" y1="8.826" transform="translate(7.881 8.754)"/></g></svg>