<svg xmlns="http://www.w3.org/2000/svg" width="21.309" height="21.309" viewBox="0 0 21.309 21.309"><defs><style>.a{fill:none;stroke:#000;stroke-linecap:round;stroke-linejoin:round;stroke-width:2px;}</style></defs><g transform="translate(1 1.001)"><circle class="a" cx="2.633" cy="2.633" r="2.633" transform="translate(7.021 7.02)"/><path class="a" d="M17.149,13.287a1.448,1.448,0,0,0,.29,1.6l.053.053a1.756,1.756,0,1,1-2.484,2.484l-.053-.053A1.46,1.46,0,0,0,12.48,18.4v.149a1.755,1.755,0,1,1-3.511,0v-.079a1.448,1.448,0,0,0-.948-1.325,1.448,1.448,0,0,0-1.6.29l-.053.053a1.756,1.756,0,1,1-2.484-2.484l.053-.053A1.46,1.46,0,0,0,2.9,12.48H2.755a1.755,1.755,0,1,1,0-3.511h.079A1.448,1.448,0,0,0,4.16,8.021a1.448,1.448,0,0,0-.29-1.6l-.053-.053A1.756,1.756,0,1,1,6.3,3.888l.053.053a1.448,1.448,0,0,0,1.6.29h.07A1.448,1.448,0,0,0,8.9,2.9V2.755a1.755,1.755,0,0,1,3.511,0v.079A1.46,1.46,0,0,0,14.885,3.87l.053-.053A1.756,1.756,0,1,1,17.421,6.3l-.053.053a1.448,1.448,0,0,0-.29,1.6v.07A1.448,1.448,0,0,0,18.4,8.9h.149a1.755,1.755,0,1,1,0,3.511h-.079A1.448,1.448,0,0,0,17.149,13.287Z" transform="translate(-1 -1.001)"/></g></svg>